{
  "accessors": [
    {
      "bufferView": 2,
      "componentType": 5126,
      "count": 4,
      "max": [
        167.0288848876953,
        167.0288848876953,
        0.0
      ],
      "min": [
        -167.0288848876953,
        -167.0288848876953,
        0.0
      ],
      "type": "VEC3"
    },
    {
      "bufferView": 2,
      "byteOffset": 48,
      "componentType": 5126,
      "count": 4,
      "max": [
        0.0,
        0.0,
        1.0
      ],
      "min": [
        0.0,
        0.0,
        1.0
      ],
      "type": "VEC3"
    },
    {
      "bufferView": 1,
      "componentType": 5126,
      "count": 4,
      "max": [
        1.0,
        1.0
      ],
      "min": [
        2.9802322387695313e-08,
        2.9802322387695313e-08
      ],
      "type": "VEC2"
    },
    {
      "bufferView": 0,
      "componentType": 5125,
      "count": 6,
      "type": "SCALAR"
    },
    {
      "bufferView": 2,
      "byteOffset": 96,
      "componentType": 5126,
      "count": 8075,
      "max": [
        98.60265350341797,
        50.2100830078125,
        83.25946044921875
      ],
      "min": [
        -98.38457489013672,
        -49.385963439941406,
        6.493136882781982
      ],
      "type": "VEC3"
    },
    {
      "bufferView": 2,
      "byteOffset": 96996,
      "componentType": 5126,
      "count": 8075,
      "max": [
        0.9999989867210388,
        0.9999540448188782,
        0.9999508857727051
      ],
      "min": [
        -0.9999995231628418,
        -0.9999811053276062,
        -0.9999201893806458
      ],
      "type": "VEC3"
    },
    {
      "bufferView": 1,
      "byteOffset": 32,
      "componentType": 5126,
      "count": 8075,
      "max": [
        0.9611349701881409,
        0.982619047164917
      ],
      "min": [
        0.0005000000237487257,
        0.0005000000237487257
      ],
      "type": "VEC2"
    },
    {
      "bufferView": 0,
      "byteOffset": 24,
      "componentType": 5125,
      "count": 43896,
      "type": "SCALAR"
    },
    {
      "bufferView": 2,
      "byteOffset": 193896,
      "componentType": 5126,
      "count": 814,
      "max": [
        93.90870666503906,
        30.541759490966797,
        14.760290145874023
      ],
      "min": [
        -94.1440200805664,
        -43.68299102783203,
        3.814697265625e-06
      ],
      "type": "VEC3"
    },
    {
      "bufferView": 2,
      "byteOffset": 203664,
      "componentType": 5126,
      "count": 814,
      "max": [
        0.9999828934669495,
        0.9999828934669495,
        1.0
      ],
      "min": [
        -0.9999828934669495,
        -0.9999828934669495,
        -1.0
      ],
      "type": "VEC3"
    },
    {
      "bufferView": 1,
      "byteOffset": 64632,
      "componentType": 5126,
      "count": 814,
      "max": [
        0.999500036239624,
        0.8999020457267761
      ],
      "min": [
        0.4634619951248169,
        0.17056767642498016
      ],
      "type": "VEC2"
    },
    {
      "bufferView": 0,
      "byteOffset": 175608,
      "componentType": 5125,
      "count": 3000,
      "type": "SCALAR"
    }
  ],
  "asset": {
    "extras": {
      "author": "MADE.COM (https://sketchfab.com/made-it)",
      "license": "CC-BY-NC-4.0 (http://creativecommons.org/licenses/by-nc/4.0/)",
      "source": "https://sketchfab.com/3d-models/sofia-3-seater-sofa-plush-turmeric-velvet-d8422a550aec40579209c0ee67644344",
      "title": "Sofia 3 Seater Sofa, Plush Turmeric Velvet"
    },
    "generator": "Sketchfab-12.68.0",
    "version": "2.0"
  },
  "bufferViews": [
    {
      "buffer": 0,
      "byteLength": 187608,
      "name": "floatBufferViews",
      "target": 34963
    },
    {
      "buffer": 0,
      "byteLength": 71144,
      "byteOffset": 187608,
      "byteStride": 8,
      "name": "floatBufferViews",
      "target": 34962
    },
    {
      "buffer": 0,
      "byteLength": 213432,
      "byteOffset": 258752,
      "byteStride": 12,
      "name": "floatBufferViews",
      "target": 34962
    }
  ],
  "buffers": [
    {
      "byteLength": 472184,
      "uri": "scene.bin"
    }
  ],
  "images": [
    {
      "uri": "textures/FLOOR_baseColor.png"
    },
    {
      "uri": "textures/VELVET_baseColor.jpeg"
    }
  ],
  "materials": [
    {
      "alphaMode": "BLEND",
      "doubleSided": true,
      "name": "FLOOR",
      "pbrMetallicRoughness": {
        "baseColorTexture": {
          "index": 0
        },
        "metallicFactor": 0.0,
        "roughnessFactor": 0.8929713596
      }
    },
    {
      "doubleSided": true,
      "name": "VELVET",
      "pbrMetallicRoughness": {
        "baseColorTexture": {
          "index": 1
        },
        "metallicFactor": 0.0,
        "roughnessFactor": 0.8519435976
      }
    },
    {
      "doubleSided": true,
      "name": "LEGS",
      "pbrMetallicRoughness": {
        "baseColorTexture": {
          "index": 1
        },
        "metallicFactor": 0.2090320122,
        "roughnessFactor": 0.5287728658999999
      }
    }
  ],
  "meshes": [
    {
      "name": "Plane001_FLOOR_0",
      "primitives": [
        {
          "attributes": {
            "NORMAL": 1,
            "POSITION": 0,
            "TEXCOORD_0": 2
          },
          "indices": 3,
          "material": 0,
          "mode": 4
        }
      ]
    },
    {
      "name": "VELVET001_VELVET_0",
      "primitives": [
        {
          "attributes": {
            "NORMAL": 5,
            "POSITION": 4,
            "TEXCOORD_0": 6
          },
          "indices": 7,
          "material": 1,
          "mode": 4
        }
      ]
    },
    {
      "name": "LEGS001_LEGS_0",
      "primitives": [
        {
          "attributes": {
            "NORMAL": 9,
            "POSITION": 8,
            "TEXCOORD_0": 10
          },
          "indices": 11,
          "material": 2,
          "mode": 4
        }
      ]
    }
  ],
  "nodes": [
    {
      "children": [
        1
      ],
      "matrix": [
        1.0,
        0.0,
        0.0,
        0.0,
        0.0,
        2.220446049250313e-16,
        -1.0,
        0.0,
        0.0,
        1.0,
        2.220446049250313e-16,
        0.0,
        0.0,
        0.0,
        0.0,
        1.0
      ],
      "name": "Sketchfab_model"
    },
    {
      "children": [
        2
      ],
      "matrix": [
        1.0,
        0.0,
        0.0,
        0.0,
        0.0,
        0.0,
        1.0,
        0.0,
        0.0,
        -1.0,
        0.0,
        0.0,
        0.0,
        0.0,
        0.0,
        1.0
      ],
      "name": "Sofia 3 Seater Sofa.FBX"
    },
    {
      "children": [
        3,
        5,
        7
      ],
      "name": "RootNode"
    },
    {
      "children": [
        4
      ],
      "matrix": [
        1.0,
        0.0,
        0.0,
        0.0,
        0.0,
        2.220446049250313e-16,
        -1.0,
        0.0,
        0.0,
        1.0,
        2.220446049250313e-16,
        0.0,
        0.0,
        0.0,
        0.0,
        1.0
      ],
      "name": "Plane001"
    },
    {
      "mesh": 0,
      "name": "Plane001_FLOOR_0"
    },
    {
      "children": [
        6
      ],
      "matrix": [
        1.0,
        0.0,
        0.0,
        0.0,
        0.0,
        2.220446049250313e-16,
        -1.0,
        0.0,
        0.0,
        1.0,
        2.220446049250313e-16,
        0.0,
        0.0,
        0.0,
        0.0,
        1.0
      ],
      "name": "VELVET001"
    },
    {
      "mesh": 1,
      "name": "VELVET001_VELVET_0"
    },
    {
      "children": [
        8
      ],
      "matrix": [
        1.0,
        0.0,
        0.0,
        0.0,
        0.0,
        2.220446049250313e-16,
        -1.0,
        0.0,
        0.0,
        1.0,
        2.220446049250313e-16,
        0.0,
        0.0,
        0.0,
        0.0,
        1.0
      ],
      "name": "LEGS001"
    },
    {
      "mesh": 2,
      "name": "LEGS001_LEGS_0"
    }
  ],
  "samplers": [
    {
      "magFilter": 9729,
      "minFilter": 9987,
      "wrapS": 10497,
      "wrapT": 10497
    }
  ],
  "scene": 0,
  "scenes": [
    {
      "name": "Sketchfab_Scene",
      "nodes": [
        0
      ]
    }
  ],
  "textures": [
    {
      "sampler": 0,
      "source": 0
    },
    {
      "sampler": 0,
      "source": 1
    }
  ]
}
